<svg width="1000" height="1000" viewBox="0 0 486 426" fill="none" xmlns="http://www.w3.org/2000/svg">
<rect width="486" height="426" rx="100" fill="black"/>
<g filter="url(#filter0_d)">
<path d="M88.048 286C88.624 284.656 89.776 282.544 91.504 279.664C93.424 276.784 95.824 273.52 98.704 269.872C102.16 265.264 106.864 259.12 112.816 251.44C118.768 243.568 125.296 235.024 132.4 225.808C139.504 216.592 146.704 207.28 154 197.872C161.296 188.464 167.92 179.824 173.872 171.952V171.376H122.32C110.032 171.376 101.296 172.048 96.112 173.392C90.928 174.544 88.144 175.792 87.76 177.136V151.216L224.848 151.216C224.08 152.368 222.736 154.384 220.816 157.264C218.896 159.952 216.304 163.312 213.04 167.344C208.432 173.296 202.864 180.4 196.336 188.656C189.808 196.912 182.992 205.552 175.888 214.576C168.784 223.6 161.776 232.528 154.864 241.36C147.952 250 141.712 257.776 136.144 264.688V265.552H190.288C202.192 265.552 211.408 264.976 217.936 263.824C224.656 262.48 228.88 261.136 230.608 259.792L224.848 279.952V286H88.048Z" fill="white"/>
<path d="M249.654 286C250.998 286 252.246 284.656 253.398 281.968C254.742 279.28 255.414 274.864 255.414 268.72L255.414 104.56C255.414 98.416 254.742 94.096 253.398 91.6C252.246 88.912 250.998 87.472 249.654 87.28L284.79 87.28V165.904L284.214 169.648L284.79 170.224C289.014 164.848 295.254 159.856 303.51 155.248C311.766 150.64 322.71 148.336 336.342 148.336C354.198 148.336 367.83 153.424 377.238 163.6C386.838 173.776 391.638 189.712 391.638 211.408L391.638 268.72C391.638 274.864 392.214 279.28 393.366 281.968C394.71 284.656 396.054 286 397.398 286H356.502C357.846 286 359.094 284.656 360.246 281.968C361.59 279.28 362.262 274.864 362.262 268.72L362.262 212.272C362.262 200.944 360.822 192.112 357.942 185.776C355.062 179.44 351.03 175.024 345.846 172.528C340.854 169.84 334.998 168.496 328.278 168.496C321.174 168.496 314.262 170.032 307.542 173.104C300.822 176.176 295.35 181.072 291.126 187.792C286.902 194.512 284.79 203.536 284.79 214.864V268.72C284.79 274.864 285.366 279.28 286.518 281.968C287.862 284.656 289.206 286 290.55 286H249.654Z" fill="#FF0000"/>
<path d="M88.048 286L87.1289 285.606L86.5315 287H88.048V286ZM91.504 279.664L90.6719 279.109L90.6587 279.129L90.6465 279.15L91.504 279.664ZM98.704 269.872L99.4889 270.492L99.4966 270.482L99.504 270.472L98.704 269.872ZM112.816 251.44L113.606 252.053L113.614 252.043L112.816 251.44ZM154 197.872L153.21 197.259L153.21 197.259L154 197.872ZM173.872 171.952L174.67 172.555L174.872 172.287V171.952H173.872ZM173.872 171.376H174.872V170.376H173.872V171.376ZM96.112 173.392L96.3289 174.368L96.346 174.364L96.363 174.36L96.112 173.392ZM87.76 177.136H86.76L88.7215 177.411L87.76 177.136ZM87.76 151.216V150.216H86.76V151.216H87.76ZM224.848 151.216L225.68 151.771L226.717 150.216H224.848V151.216ZM220.816 157.264L221.63 157.845L221.639 157.832L221.648 157.819L220.816 157.264ZM213.04 167.344L212.263 166.715L212.256 166.723L212.249 166.732L213.04 167.344ZM196.336 188.656L195.552 188.036L195.552 188.036L196.336 188.656ZM154.864 241.36L155.645 241.985L155.652 241.976L154.864 241.36ZM136.144 264.688L135.365 264.061L135.144 264.335V264.688H136.144ZM136.144 265.552H135.144V266.552H136.144V265.552ZM217.936 263.824L218.11 264.809L218.121 264.807L218.132 264.805L217.936 263.824ZM230.608 259.792L231.57 260.067L232.411 257.123L229.994 259.003L230.608 259.792ZM224.848 279.952L223.886 279.677L223.848 279.812V279.952H224.848ZM224.848 286V287H225.848V286H224.848ZM88.9671 286.394C89.5141 285.118 90.6348 283.056 92.3615 280.178L90.6465 279.15C88.9172 282.032 87.7339 284.194 87.1289 285.606L88.9671 286.394ZM92.3361 280.219C94.2372 277.367 96.6203 274.125 99.4889 270.492L97.9191 269.252C95.0277 272.915 92.6108 276.201 90.6719 279.109L92.3361 280.219ZM99.504 270.472C102.955 265.87 107.656 259.731 113.606 252.053L112.026 250.827C106.072 258.509 101.365 264.658 97.904 269.272L99.504 270.472ZM113.614 252.043C119.563 244.174 126.09 235.632 133.192 226.419L131.608 225.197C124.502 234.416 117.973 242.962 112.018 250.837L113.614 252.043ZM133.192 226.419C140.295 217.203 147.495 207.892 154.79 198.485L153.21 197.259C145.913 206.668 138.713 215.981 131.608 225.197L133.192 226.419ZM154.79 198.485C162.088 189.074 168.715 180.431 174.67 172.555L173.074 171.349C167.125 179.217 160.504 187.854 153.21 197.259L154.79 198.485ZM174.872 171.952V171.376H172.872V171.952H174.872ZM173.872 170.376H122.32V172.376H173.872V170.376ZM122.32 170.376C110.028 170.376 101.179 171.045 95.861 172.424L96.363 174.36C101.413 173.051 110.036 172.376 122.32 172.376V170.376ZM95.8951 172.416C93.2778 172.997 91.2097 173.615 89.7269 174.279C88.9857 174.612 88.3536 174.972 87.8648 175.372C87.3807 175.768 86.9709 176.258 86.7985 176.861L88.7215 177.411C88.7411 177.342 88.8233 177.172 89.1312 176.92C89.4344 176.672 89.8943 176.396 90.5451 176.105C91.8463 175.521 93.7622 174.939 96.3289 174.368L95.8951 172.416ZM88.76 177.136V151.216H86.76V177.136H88.76ZM87.76 152.216L224.848 152.216V150.216L87.76 150.216V152.216ZM224.016 150.661C224.014 150.664 224.013 150.666 224.011 150.668C224.01 150.67 224.008 150.673 224.007 150.675C224.005 150.677 224.004 150.679 224.002 150.682C224.001 150.684 223.999 150.686 223.998 150.688C223.996 150.691 223.995 150.693 223.993 150.695C223.992 150.698 223.99 150.7 223.989 150.702C223.987 150.704 223.986 150.707 223.984 150.709C223.983 150.711 223.981 150.714 223.98 150.716C223.978 150.718 223.976 150.721 223.975 150.723C223.973 150.725 223.972 150.727 223.97 150.73C223.969 150.732 223.967 150.734 223.966 150.737C223.964 150.739 223.963 150.741 223.961 150.744C223.959 150.746 223.958 150.748 223.956 150.751C223.955 150.753 223.953 150.755 223.952 150.758C223.95 150.76 223.949 150.762 223.947 150.765C223.945 150.767 223.944 150.769 223.942 150.772C223.941 150.774 223.939 150.777 223.938 150.779C223.936 150.781 223.934 150.784 223.933 150.786C223.931 150.788 223.93 150.791 223.928 150.793C223.926 150.795 223.925 150.798 223.923 150.8C223.922 150.803 223.92 150.805 223.919 150.807C223.917 150.81 223.915 150.812 223.914 150.815C223.912 150.817 223.911 150.819 223.909 150.822C223.907 150.824 223.906 150.827 223.904 150.829C223.903 150.831 223.901 150.834 223.899 150.836C223.898 150.839 223.896 150.841 223.894 150.843C223.893 150.846 223.891 150.848 223.89 150.851C223.888 150.853 223.886 150.856 223.885 150.858C223.883 150.86 223.882 150.863 223.88 150.865C223.878 150.868 223.877 150.87 223.875 150.873C223.873 150.875 223.872 150.878 223.87 150.88C223.868 150.882 223.867 150.885 223.865 150.887C223.864 150.89 223.862 150.892 223.86 150.895C223.859 150.897 223.857 150.9 223.855 150.902C223.854 150.905 223.852 150.907 223.85 150.91C223.849 150.912 223.847 150.915 223.845 150.917C223.844 150.92 223.842 150.922 223.84 150.925C223.839 150.927 223.837 150.93 223.835 150.932C223.834 150.935 223.832 150.937 223.83 150.94C223.829 150.942 223.827 150.945 223.825 150.947C223.824 150.95 223.822 150.952 223.82 150.955C223.819 150.957 223.817 150.96 223.815 150.962C223.814 150.965 223.812 150.967 223.81 150.97C223.809 150.972 223.807 150.975 223.805 150.977C223.804 150.98 223.802 150.983 223.8 150.985C223.798 150.988 223.797 150.99 223.795 150.993C223.793 150.995 223.792 150.998 223.79 151C223.788 151.003 223.786 151.006 223.785 151.008C223.783 151.011 223.781 151.013 223.78 151.016C223.778 151.018 223.776 151.021 223.774 151.024C223.773 151.026 223.771 151.029 223.769 151.031C223.768 151.034 223.766 151.036 223.764 151.039C223.762 151.042 223.761 151.044 223.759 151.047C223.757 151.049 223.755 151.052 223.754 151.055C223.752 151.057 223.75 151.06 223.749 151.062C223.747 151.065 223.745 151.068 223.743 151.07C223.742 151.073 223.74 151.076 223.738 151.078C223.736 151.081 223.735 151.083 223.733 151.086C223.731 151.089 223.729 151.091 223.728 151.094C223.726 151.097 223.724 151.099 223.722 151.102C223.72 151.105 223.719 151.107 223.717 151.11C223.715 151.112 223.713 151.115 223.712 151.118C223.71 151.12 223.708 151.123 223.706 151.126C223.705 151.128 223.703 151.131 223.701 151.134C223.699 151.136 223.697 151.139 223.696 151.142C223.694 151.144 223.692 151.147 223.69 151.15C223.688 151.153 223.687 151.155 223.685 151.158C223.683 151.161 223.681 151.163 223.679 151.166C223.678 151.169 223.676 151.171 223.674 151.174C223.672 151.177 223.67 151.18 223.669 151.182C223.667 151.185 223.665 151.188 223.663 151.19C223.661 151.193 223.66 151.196 223.658 151.199C223.656 151.201 223.654 151.204 223.652 151.207C223.651 151.209 223.649 151.212 223.647 151.215C223.645 151.218 223.643 151.22 223.641 151.223C223.64 151.226 223.638 151.229 223.636 151.231C223.634 151.234 223.632 151.237 223.63 151.24C223.629 151.242 223.627 151.245 223.625 151.248C223.623 151.251 223.621 151.253 223.619 151.256C223.617 151.259 223.616 151.262 223.614 151.265C223.612 151.267 223.61 151.27 223.608 151.273C223.606 151.276 223.604 151.278 223.603 151.281C223.601 151.284 223.599 151.287 223.597 151.29C223.595 151.292 223.593 151.295 223.591 151.298C223.59 151.301 223.588 151.304 223.586 151.306C223.584 151.309 223.582 151.312 223.58 151.315C223.578 151.318 223.576 151.321 223.575 151.323C223.573 151.326 223.571 151.329 223.569 151.332C223.567 151.335 223.565 151.338 223.563 151.34C223.561 151.343 223.559 151.346 223.558 151.349C223.556 151.352 223.554 151.355 223.552 151.357C223.55 151.36 223.548 151.363 223.546 151.366C223.544 151.369 223.542 151.372 223.54 151.375C223.539 151.377 223.537 151.38 223.535 151.383C223.533 151.386 223.531 151.389 223.529 151.392C223.527 151.395 223.525 151.398 223.523 151.4C223.521 151.403 223.519 151.406 223.517 151.409C223.516 151.412 223.514 151.415 223.512 151.418C223.51 151.421 223.508 151.424 223.506 151.426C223.504 151.429 223.502 151.432 223.5 151.435C223.498 151.438 223.496 151.441 223.494 151.444C223.492 151.447 223.49 151.45 223.488 151.453C223.486 151.456 223.484 151.459 223.483 151.461C223.481 151.464 223.479 151.467 223.477 151.47C223.475 151.473 223.473 151.476 223.471 151.479C223.469 151.482 223.467 151.485 223.465 151.488C223.463 151.491 223.461 151.494 223.459 151.497C223.457 151.5 223.455 151.503 223.453 151.506C223.451 151.509 223.449 151.512 223.447 151.515C223.445 151.517 223.443 151.52 223.441 151.523C223.439 151.526 223.437 151.529 223.435 151.532C223.433 151.535 223.431 151.538 223.429 151.541C223.427 151.544 223.425 151.547 223.423 151.55C223.421 151.553 223.419 151.556 223.417 151.559C223.415 151.562 223.413 151.565 223.411 151.568C223.409 151.571 223.407 151.574 223.405 151.577C223.403 151.58 223.401 151.583 223.399 151.586C223.397 151.589 223.395 151.592 223.393 151.595C223.391 151.598 223.389 151.602 223.387 151.605C223.385 151.608 223.383 151.611 223.381 151.614C223.379 151.617 223.377 151.62 223.375 151.623C223.373 151.626 223.371 151.629 223.369 151.632C223.367 151.635 223.365 151.638 223.363 151.641C223.361 151.644 223.359 151.647 223.357 151.65C223.355 151.653 223.353 151.656 223.35 151.66C223.348 151.663 223.346 151.666 223.344 151.669C223.342 151.672 223.34 151.675 223.338 151.678C223.336 151.681 223.334 151.684 223.332 151.687C223.33 151.69 223.328 151.693 223.326 151.697C223.324 151.7 223.322 151.703 223.32 151.706C223.317 151.709 223.315 151.712 223.313 151.715C223.311 151.718 223.309 151.721 223.307 151.725C223.305 151.728 223.303 151.731 223.301 151.734C223.299 151.737 223.297 151.74 223.295 151.743C223.293 151.746 223.29 151.75 223.288 151.753C223.286 151.756 223.284 151.759 223.282 151.762C223.28 151.765 223.278 151.768 223.276 151.772C223.274 151.775 223.272 151.778 223.269 151.781C223.267 151.784 223.265 151.787 223.263 151.791C223.261 151.794 223.259 151.797 223.257 151.8C223.255 151.803 223.253 151.806 223.25 151.81C223.248 151.813 223.246 151.816 223.244 151.819C223.242 151.822 223.24 151.826 223.238 151.829C223.236 151.832 223.233 151.835 223.231 151.838C223.229 151.842 223.227 151.845 223.225 151.848C223.223 151.851 223.221 151.854 223.218 151.858C223.216 151.861 223.214 151.864 223.212 151.867C223.21 151.87 223.208 151.874 223.206 151.877C223.203 151.88 223.201 151.883 223.199 151.887C223.197 151.89 223.195 151.893 223.193 151.896C223.19 151.9 223.188 151.903 223.186 151.906C223.184 151.909 223.182 151.912 223.18 151.916C223.177 151.919 223.175 151.922 223.173 151.926C223.171 151.929 223.169 151.932 223.167 151.935C223.164 151.939 223.162 151.942 223.16 151.945C223.158 151.948 223.156 151.952 223.154 151.955C223.151 151.958 223.149 151.961 223.147 151.965C223.145 151.968 223.143 151.971 223.14 151.975C223.138 151.978 223.136 151.981 223.134 151.985C223.132 151.988 223.129 151.991 223.127 151.994C223.125 151.998 223.123 152.001 223.121 152.004C223.118 152.008 223.116 152.011 223.114 152.014C223.112 152.018 223.11 152.021 223.107 152.024C223.105 152.028 223.103 152.031 223.101 152.034C223.098 152.038 223.096 152.041 223.094 152.044C223.092 152.048 223.09 152.051 223.087 152.054C223.085 152.058 223.083 152.061 223.081 152.064C223.078 152.068 223.076 152.071 223.074 152.074C223.072 152.078 223.069 152.081 223.067 152.084C223.065 152.088 223.063 152.091 223.06 152.095C223.058 152.098 223.056 152.101 223.054 152.105C223.051 152.108 223.049 152.111 223.047 152.115C223.045 152.118 223.042 152.122 223.04 152.125C223.038 152.128 223.036 152.132 223.033 152.135C223.031 152.139 223.029 152.142 223.027 152.145C223.024 152.149 223.022 152.152 223.02 152.156C223.017 152.159 223.015 152.162 223.013 152.166C223.011 152.169 223.008 152.173 223.006 152.176C223.004 152.179 223.002 152.183 222.999 152.186C222.997 152.19 222.995 152.193 222.992 152.197C222.99 152.2 222.988 152.204 222.986 152.207C222.983 152.21 222.981 152.214 222.979 152.217C222.976 152.221 222.974 152.224 222.972 152.228C222.969 152.231 222.967 152.235 222.965 152.238C222.962 152.242 222.96 152.245 222.958 152.248C222.956 152.252 222.953 152.255 222.951 152.259C222.949 152.262 222.946 152.266 222.944 152.269C222.942 152.273 222.939 152.276 222.937 152.28C222.935 152.283 222.932 152.287 222.93 152.29C222.928 152.294 222.925 152.297 222.923 152.301C222.921 152.304 222.918 152.308 222.916 152.311C222.914 152.315 222.911 152.318 222.909 152.322C222.907 152.325 222.904 152.329 222.902 152.332C222.9 152.336 222.897 152.339 222.895 152.343C222.893 152.346 222.89 152.35 222.888 152.354C222.885 152.357 222.883 152.361 222.881 152.364C222.878 152.368 222.876 152.371 222.874 152.375C222.871 152.378 222.869 152.382 222.867 152.385C222.864 152.389 222.862 152.393 222.859 152.396C222.857 152.4 222.855 152.403 222.852 152.407C222.85 152.41 222.848 152.414 222.845 152.418C222.843 152.421 222.84 152.425 222.838 152.428C222.836 152.432 222.833 152.435 222.831 152.439C222.828 152.443 222.826 152.446 222.824 152.45C222.821 152.453 222.819 152.457 222.816 152.461C222.814 152.464 222.812 152.468 222.809 152.471C222.807 152.475 222.804 152.479 222.802 152.482C222.8 152.486 222.797 152.489 222.795 152.493C222.792 152.497 222.79 152.5 222.788 152.504C222.785 152.508 222.783 152.511 222.78 152.515C222.778 152.518 222.775 152.522 222.773 152.526C222.771 152.529 222.768 152.533 222.766 152.537C222.763 152.54 222.761 152.544 222.758 152.548C222.756 152.551 222.754 152.555 222.751 152.559C222.749 152.562 222.746 152.566 222.744 152.57C222.741 152.573 222.739 152.577 222.736 152.581C222.734 152.584 222.732 152.588 222.729 152.592C222.727 152.595 222.724 152.599 222.722 152.603C222.719 152.606 222.717 152.61 222.714 152.614C222.712 152.617 222.709 152.621 222.707 152.625C222.704 152.629 222.702 152.632 222.7 152.636C222.697 152.64 222.695 152.643 222.692 152.647C222.69 152.651 222.687 152.655 222.685 152.658C222.682 152.662 222.68 152.666 222.677 152.669C222.675 152.673 222.672 152.677 222.67 152.681C222.667 152.684 222.665 152.688 222.662 152.692C222.66 152.696 222.657 152.699 222.655 152.703C222.652 152.707 222.65 152.711 222.647 152.714C222.645 152.718 222.642 152.722 222.64 152.726C222.637 152.729 222.635 152.733 222.632 152.737C222.63 152.741 222.627 152.744 222.625 152.748C222.622 152.752 222.62 152.756 222.617 152.759C222.615 152.763 222.612 152.767 222.61 152.771C222.607 152.775 222.605 152.778 222.602 152.782C222.599 152.786 222.597 152.79 222.594 152.794C222.592 152.797 222.589 152.801 222.587 152.805C222.584 152.809 222.582 152.813 222.579 152.816C222.577 152.82 222.574 152.824 222.572 152.828C222.569 152.832 222.566 152.836 222.564 152.839C222.561 152.843 222.559 152.847 222.556 152.851C222.554 152.855 222.551 152.858 222.549 152.862C222.546 152.866 222.543 152.87 222.541 152.874C222.538 152.878 222.536 152.882 222.533 152.885C222.531 152.889 222.528 152.893 222.526 152.897C222.523 152.901 222.52 152.905 222.518 152.909C222.515 152.912 222.513 152.916 222.51 152.92C222.507 152.924 222.505 152.928 222.502 152.932C222.5 152.936 222.497 152.94 222.495 152.943C222.492 152.947 222.489 152.951 222.487 152.955C222.484 152.959 222.482 152.963 222.479 152.967C222.476 152.971 222.474 152.975 222.471 152.978C222.469 152.982 222.466 152.986 222.463 152.99C222.461 152.994 222.458 152.998 222.456 153.002C222.453 153.006 222.45 153.01 222.448 153.014C222.445 153.018 222.442 153.022 222.44 153.025C222.437 153.029 222.435 153.033 222.432 153.037C222.429 153.041 222.427 153.045 222.424 153.049C222.421 153.053 222.419 153.057 222.416 153.061C222.414 153.065 222.411 153.069 222.408 153.073C222.406 153.077 222.403 153.081 222.4 153.085C222.398 153.089 222.395 153.093 222.392 153.097C222.39 153.101 222.387 153.105 222.384 153.109C222.382 153.113 222.379 153.116 222.377 153.12C222.374 153.124 222.371 153.128 222.369 153.132C222.366 153.136 222.363 153.14 222.361 153.144C222.358 153.148 222.355 153.152 222.353 153.156C222.35 153.16 222.347 153.164 222.345 153.168C222.342 153.172 222.339 153.176 222.337 153.18C222.334 153.184 222.331 153.189 222.328 153.193C222.326 153.197 222.323 153.201 222.32 153.205C222.318 153.209 222.315 153.213 222.312 153.217C222.31 153.221 222.307 153.225 222.304 153.229C222.302 153.233 222.299 153.237 222.296 153.241C222.293 153.245 222.291 153.249 222.288 153.253C222.285 153.257 222.283 153.261 222.28 153.265C222.277 153.269 222.275 153.273 222.272 153.277C222.269 153.282 222.266 153.286 222.264 153.29C222.261 153.294 222.258 153.298 222.256 153.302C222.253 153.306 222.25 153.31 222.247 153.314C222.245 153.318 222.242 153.322 222.239 153.326C222.236 153.331 222.234 153.335 222.231 153.339C222.228 153.343 222.225 153.347 222.223 153.351C222.22 153.355 222.217 153.359 222.215 153.363C222.212 153.368 222.209 153.372 222.206 153.376C222.204 153.38 222.201 153.384 222.198 153.388C222.195 153.392 222.193 153.396 222.19 153.401C222.187 153.405 222.184 153.409 222.181 153.413C222.179 153.417 222.176 153.421 222.173 153.425C222.17 153.43 222.168 153.434 222.165 153.438C222.162 153.442 222.159 153.446 222.157 153.45C222.154 153.455 222.151 153.459 222.148 153.463C222.145 153.467 222.143 153.471 222.14 153.475C222.137 153.48 222.134 153.484 222.132 153.488C222.129 153.492 222.126 153.496 222.123 153.5C222.12 153.505 222.118 153.509 222.115 153.513C222.112 153.517 222.109 153.521 222.106 153.526C222.104 153.53 222.101 153.534 222.098 153.538C222.095 153.542 222.092 153.547 222.09 153.551C222.087 153.555 222.084 153.559 222.081 153.564C222.078 153.568 222.076 153.572 222.073 153.576C222.07 153.58 222.067 153.585 222.064 153.589C222.061 153.593 222.059 153.597 222.056 153.602C222.053 153.606 222.05 153.61 222.047 153.614C222.044 153.619 222.042 153.623 222.039 153.627C222.036 153.631 222.033 153.636 222.03 153.64C222.027 153.644 222.025 153.648 222.022 153.653C222.019 153.657 222.016 153.661 222.013 153.665C222.01 153.67 222.007 153.674 222.005 153.678C222.002 153.683 221.999 153.687 221.996 153.691C221.993 153.695 221.99 153.7 221.987 153.704C221.985 153.708 221.982 153.713 221.979 153.717C221.976 153.721 221.973 153.725 221.97 153.73C221.967 153.734 221.965 153.738 221.962 153.743C221.959 153.747 221.956 153.751 221.953 153.756C221.95 153.76 221.947 153.764 221.944 153.769C221.941 153.773 221.939 153.777 221.936 153.782C221.933 153.786 221.93 153.79 221.927 153.795C221.924 153.799 221.921 153.803 221.918 153.808C221.915 153.812 221.913 153.816 221.91 153.821C221.907 153.825 221.904 153.829 221.901 153.834C221.898 153.838 221.895 153.843 221.892 153.847C221.889 153.851 221.886 153.856 221.883 153.86C221.881 153.864 221.878 153.869 221.875 153.873C221.872 153.877 221.869 153.882 221.866 153.886C221.863 153.891 221.86 153.895 221.857 153.899C221.854 153.904 221.851 153.908 221.848 153.913C221.845 153.917 221.843 153.921 221.84 153.926C221.837 153.93 221.834 153.935 221.831 153.939C221.828 153.943 221.825 153.948 221.822 153.952C221.819 153.957 221.816 153.961 221.813 153.966C221.81 153.97 221.807 153.974 221.804 153.979C221.801 153.983 221.798 153.988 221.795 153.992C221.792 153.997 221.789 154.001 221.786 154.005C221.784 154.01 221.781 154.014 221.778 154.019C221.775 154.023 221.772 154.028 221.769 154.032C221.766 154.037 221.763 154.041 221.76 154.046C221.757 154.05 221.754 154.055 221.751 154.059C221.748 154.063 221.745 154.068 221.742 154.072C221.739 154.077 221.736 154.081 221.733 154.086C221.73 154.09 221.727 154.095 221.724 154.099C221.721 154.104 221.718 154.108 221.715 154.113C221.712 154.117 221.709 154.122 221.706 154.126C221.703 154.131 221.7 154.135 221.697 154.14C221.694 154.144 221.691 154.149 221.688 154.153C221.685 154.158 221.682 154.162 221.679 154.167C221.676 154.171 221.673 154.176 221.67 154.181C221.667 154.185 221.664 154.19 221.661 154.194C221.658 154.199 221.655 154.203 221.652 154.208C221.649 154.212 221.646 154.217 221.643 154.221C221.64 154.226 221.636 154.23 221.633 154.235C221.63 154.24 221.627 154.244 221.624 154.249C221.621 154.253 221.618 154.258 221.615 154.262C221.612 154.267 221.609 154.272 221.606 154.276C221.603 154.281 221.6 154.285 221.597 154.29C221.594 154.294 221.591 154.299 221.588 154.304C221.585 154.308 221.582 154.313 221.579 154.317C221.575 154.322 221.572 154.327 221.569 154.331C221.566 154.336 221.563 154.34 221.56 154.345C221.557 154.35 221.554 154.354 221.551 154.359C221.548 154.363 221.545 154.368 221.542 154.373C221.539 154.377 221.535 154.382 221.532 154.387C221.529 154.391 221.526 154.396 221.523 154.401C221.52 154.405 221.517 154.41 221.514 154.414C221.511 154.419 221.508 154.424 221.505 154.428C221.501 154.433 221.498 154.438 221.495 154.442C221.492 154.447 221.489 154.452 221.486 154.456C221.483 154.461 221.48 154.466 221.477 154.47C221.473 154.475 221.47 154.48 221.467 154.484C221.464 154.489 221.461 154.494 221.458 154.498C221.455 154.503 221.452 154.508 221.449 154.512C221.445 154.517 221.442 154.522 221.439 154.526C221.436 154.531 221.433 154.536 221.43 154.541C221.427 154.545 221.423 154.55 221.42 154.555C221.417 154.559 221.414 154.564 221.411 154.569C221.408 154.574 221.405 154.578 221.401 154.583C221.398 154.588 221.395 154.592 221.392 154.597C221.389 154.602 221.386 154.607 221.383 154.611C221.379 154.616 221.376 154.621 221.373 154.626C221.37 154.63 221.367 154.635 221.364 154.64C221.36 154.645 221.357 154.649 221.354 154.654C221.351 154.659 221.348 154.664 221.345 154.668C221.341 154.673 221.338 154.678 221.335 154.683C221.332 154.687 221.329 154.692 221.326 154.697C221.322 154.702 221.319 154.707 221.316 154.711C221.313 154.716 221.31 154.721 221.306 154.726C221.303 154.73 221.3 154.735 221.297 154.74C221.294 154.745 221.29 154.75 221.287 154.754C221.284 154.759 221.281 154.764 221.278 154.769C221.274 154.774 221.271 154.778 221.268 154.783C221.265 154.788 221.262 154.793 221.258 154.798C221.255 154.803 221.252 154.807 221.249 154.812C221.245 154.817 221.242 154.822 221.239 154.827C221.236 154.832 221.233 154.836 221.229 154.841C221.226 154.846 221.223 154.851 221.22 154.856C221.216 154.861 221.213 154.865 221.21 154.87C221.207 154.875 221.203 154.88 221.2 154.885C221.197 154.89 221.194 154.895 221.191 154.899C221.187 154.904 221.184 154.909 221.181 154.914C221.178 154.919 221.174 154.924 221.171 154.929C221.168 154.934 221.165 154.938 221.161 154.943C221.158 154.948 221.155 154.953 221.151 154.958C221.148 154.963 221.145 154.968 221.142 154.973C221.138 154.978 221.135 154.982 221.132 154.987C221.129 154.992 221.125 154.997 221.122 155.002C221.119 155.007 221.116 155.012 221.112 155.017C221.109 155.022 221.106 155.027 221.102 155.032C221.099 155.037 221.096 155.041 221.093 155.046C221.089 155.051 221.086 155.056 221.083 155.061C221.079 155.066 221.076 155.071 221.073 155.076C221.069 155.081 221.066 155.086 221.063 155.091C221.06 155.096 221.056 155.101 221.053 155.106C221.05 155.111 221.046 155.116 221.043 155.121C221.04 155.126 221.036 155.131 221.033 155.136C221.03 155.141 221.026 155.146 221.023 155.151C221.02 155.155 221.017 155.16 221.013 155.165C221.01 155.17 221.007 155.175 221.003 155.18C221 155.185 220.997 155.19 220.993 155.195C220.99 155.2 220.987 155.205 220.983 155.21C220.98 155.215 220.977 155.22 220.973 155.225C220.97 155.23 220.967 155.235 220.963 155.24C220.96 155.246 220.956 155.251 220.953 155.256C220.95 155.261 220.946 155.266 220.943 155.271C220.94 155.276 220.936 155.281 220.933 155.286C220.93 155.291 220.926 155.296 220.923 155.301C220.92 155.306 220.916 155.311 220.913 155.316C220.909 155.321 220.906 155.326 220.903 155.331C220.899 155.336 220.896 155.341 220.893 155.346C220.889 155.351 220.886 155.356 220.882 155.362C220.879 155.367 220.876 155.372 220.872 155.377C220.869 155.382 220.866 155.387 220.862 155.392C220.859 155.397 220.855 155.402 220.852 155.407C220.849 155.412 220.845 155.417 220.842 155.423C220.838 155.428 220.835 155.433 220.832 155.438C220.828 155.443 220.825 155.448 220.821 155.453C220.818 155.458 220.815 155.463 220.811 155.469C220.808 155.474 220.804 155.479 220.801 155.484C220.797 155.489 220.794 155.494 220.791 155.499C220.787 155.504 220.784 155.51 220.78 155.515C220.777 155.52 220.774 155.525 220.77 155.53C220.767 155.535 220.763 155.54 220.76 155.546C220.756 155.551 220.753 155.556 220.749 155.561C220.746 155.566 220.743 155.571 220.739 155.576C220.736 155.582 220.732 155.587 220.729 155.592C220.725 155.597 220.722 155.602 220.718 155.608C220.715 155.613 220.712 155.618 220.708 155.623C220.705 155.628 220.701 155.633 220.698 155.639C220.694 155.644 220.691 155.649 220.687 155.654C220.684 155.659 220.68 155.665 220.677 155.67C220.673 155.675 220.67 155.68 220.667 155.685C220.663 155.691 220.66 155.696 220.656 155.701C220.653 155.706 220.649 155.711 220.646 155.717C220.642 155.722 220.639 155.727 220.635 155.732C220.632 155.738 220.628 155.743 220.625 155.748C220.621 155.753 220.618 155.759 220.614 155.764C220.611 155.769 220.607 155.774 220.604 155.78C220.6 155.785 220.597 155.79 220.593 155.795C220.59 155.801 220.586 155.806 220.583 155.811C220.579 155.816 220.576 155.822 220.572 155.827C220.569 155.832 220.565 155.837 220.562 155.843C220.558 155.848 220.555 155.853 220.551 155.859C220.548 155.864 220.544 155.869 220.541 155.874C220.537 155.88 220.534 155.885 220.53 155.89C220.526 155.896 220.523 155.901 220.519 155.906C220.516 155.911 220.512 155.917 220.509 155.922C220.505 155.927 220.502 155.933 220.498 155.938C220.495 155.943 220.491 155.949 220.488 155.954C220.484 155.959 220.48 155.965 220.477 155.97C220.473 155.975 220.47 155.981 220.466 155.986C220.463 155.991 220.459 155.997 220.456 156.002C220.452 156.007 220.448 156.013 220.445 156.018C220.441 156.023 220.438 156.029 220.434 156.034C220.431 156.039 220.427 156.045 220.423 156.05C220.42 156.055 220.416 156.061 220.413 156.066C220.409 156.072 220.406 156.077 220.402 156.082C220.398 156.088 220.395 156.093 220.391 156.098C220.388 156.104 220.384 156.109 220.38 156.115C220.377 156.12 220.373 156.125 220.37 156.131C220.366 156.136 220.362 156.142 220.359 156.147C220.355 156.152 220.352 156.158 220.348 156.163C220.344 156.169 220.341 156.174 220.337 156.179C220.334 156.185 220.33 156.19 220.326 156.196C220.323 156.201 220.319 156.207 220.316 156.212C220.312 156.217 220.308 156.223 220.305 156.228C220.301 156.234 220.297 156.239 220.294 156.245C220.29 156.25 220.287 156.255 220.283 156.261C220.279 156.266 220.276 156.272 220.272 156.277C220.268 156.283 220.265 156.288 220.261 156.294C220.257 156.299 220.254 156.305 220.25 156.31C220.247 156.315 220.243 156.321 220.239 156.326C220.236 156.332 220.232 156.337 220.228 156.343C220.225 156.348 220.221 156.354 220.217 156.359C220.214 156.365 220.21 156.37 220.206 156.376C220.203 156.381 220.199 156.387 220.195 156.392C220.192 156.398 220.188 156.403 220.184 156.409C220.181 156.414 220.177 156.42 220.173 156.425C220.17 156.431 220.166 156.436 220.162 156.442C220.159 156.447 220.155 156.453 220.151 156.458C220.148 156.464 220.144 156.469 220.14 156.475C220.136 156.481 220.133 156.486 220.129 156.492C220.125 156.497 220.122 156.503 220.118 156.508C220.114 156.514 220.111 156.519 220.107 156.525C220.103 156.53 220.1 156.536 220.096 156.542C220.092 156.547 220.088 156.553 220.085 156.558C220.081 156.564 220.077 156.569 220.074 156.575C220.07 156.58 220.066 156.586 220.062 156.592C220.059 156.597 220.055 156.603 220.051 156.608C220.047 156.614 220.044 156.62 220.04 156.625C220.036 156.631 220.033 156.636 220.029 156.642C220.025 156.648 220.021 156.653 220.018 156.659C220.014 156.664 220.01 156.67 220.006 156.676C220.003 156.681 219.999 156.687 219.995 156.692C219.991 156.698 219.988 156.704 219.984 156.709L221.648 157.819C221.652 157.813 221.656 157.807 221.659 157.802C221.663 157.796 221.667 157.791 221.671 157.785C221.674 157.779 221.678 157.774 221.682 157.768C221.685 157.763 221.689 157.757 221.693 157.751C221.697 157.746 221.7 157.74 221.704 157.735C221.708 157.729 221.712 157.723 221.715 157.718C221.719 157.712 221.723 157.707 221.726 157.701C221.73 157.695 221.734 157.69 221.738 157.684C221.741 157.679 221.745 157.673 221.749 157.668C221.752 157.662 221.756 157.656 221.76 157.651C221.764 157.645 221.767 157.64 221.771 157.634C221.775 157.629 221.778 157.623 221.782 157.618C221.786 157.612 221.789 157.607 221.793 157.601C221.797 157.595 221.801 157.59 221.804 157.584C221.808 157.579 221.812 157.573 221.815 157.568C221.819 157.562 221.823 157.557 221.826 157.551C221.83 157.546 221.834 157.54 221.837 157.535C221.841 157.529 221.845 157.524 221.848 157.518C221.852 157.513 221.856 157.507 221.859 157.502C221.863 157.496 221.867 157.491 221.87 157.485C221.874 157.48 221.878 157.474 221.881 157.469C221.885 157.463 221.889 157.458 221.892 157.452C221.896 157.447 221.9 157.441 221.903 157.436C221.907 157.43 221.911 157.425 221.914 157.419C221.918 157.414 221.922 157.408 221.925 157.403C221.929 157.398 221.932 157.392 221.936 157.387C221.94 157.381 221.943 157.376 221.947 157.37C221.951 157.365 221.954 157.359 221.958 157.354C221.962 157.349 221.965 157.343 221.969 157.338C221.972 157.332 221.976 157.327 221.98 157.321C221.983 157.316 221.987 157.31 221.99 157.305C221.994 157.3 221.998 157.294 222.001 157.289C222.005 157.283 222.009 157.278 222.012 157.273C222.016 157.267 222.019 157.262 222.023 157.256C222.027 157.251 222.03 157.246 222.034 157.24C222.037 157.235 222.041 157.229 222.045 157.224C222.048 157.219 222.052 157.213 222.055 157.208C222.059 157.202 222.062 157.197 222.066 157.192C222.07 157.186 222.073 157.181 222.077 157.176C222.08 157.17 222.084 157.165 222.088 157.16C222.091 157.154 222.095 157.149 222.098 157.143C222.102 157.138 222.105 157.133 222.109 157.127C222.112 157.122 222.116 157.117 222.12 157.111C222.123 157.106 222.127 157.101 222.13 157.095C222.134 157.09 222.137 157.085 222.141 157.079C222.145 157.074 222.148 157.069 222.152 157.063C222.155 157.058 222.159 157.053 222.162 157.047C222.166 157.042 222.169 157.037 222.173 157.031C222.176 157.026 222.18 157.021 222.183 157.016C222.187 157.01 222.191 157.005 222.194 157C222.198 156.994 222.201 156.989 222.205 156.984C222.208 156.978 222.212 156.973 222.215 156.968C222.219 156.963 222.222 156.957 222.226 156.952C222.229 156.947 222.233 156.942 222.236 156.936C222.24 156.931 222.243 156.926 222.247 156.92C222.25 156.915 222.254 156.91 222.257 156.905C222.261 156.899 222.264 156.894 222.268 156.889C222.271 156.884 222.275 156.878 222.278 156.873C222.282 156.868 222.285 156.863 222.289 156.857C222.292 156.852 222.296 156.847 222.299 156.842C222.303 156.837 222.306 156.831 222.31 156.826C222.313 156.821 222.317 156.816 222.32 156.81C222.324 156.805 222.327 156.8 222.331 156.795C222.334 156.79 222.338 156.784 222.341 156.779C222.345 156.774 222.348 156.769 222.351 156.764C222.355 156.758 222.358 156.753 222.362 156.748C222.365 156.743 222.369 156.738 222.372 156.732C222.376 156.727 222.379 156.722 222.383 156.717C222.386 156.712 222.389 156.707 222.393 156.701C222.396 156.696 222.4 156.691 222.403 156.686C222.407 156.681 222.41 156.676 222.414 156.67C222.417 156.665 222.42 156.66 222.424 156.655C222.427 156.65 222.431 156.645 222.434 156.64C222.438 156.634 222.441 156.629 222.444 156.624C222.448 156.619 222.451 156.614 222.455 156.609C222.458 156.604 222.462 156.598 222.465 156.593C222.468 156.588 222.472 156.583 222.475 156.578C222.479 156.573 222.482 156.568 222.485 156.563C222.489 156.557 222.492 156.552 222.496 156.547C222.499 156.542 222.502 156.537 222.506 156.532C222.509 156.527 222.513 156.522 222.516 156.517C222.519 156.512 222.523 156.507 222.526 156.501C222.53 156.496 222.533 156.491 222.536 156.486C222.54 156.481 222.543 156.476 222.547 156.471C222.55 156.466 222.553 156.461 222.557 156.456C222.56 156.451 222.563 156.446 222.567 156.441C222.57 156.436 222.574 156.43 222.577 156.425C222.58 156.42 222.584 156.415 222.587 156.41C222.59 156.405 222.594 156.4 222.597 156.395C222.6 156.39 222.604 156.385 222.607 156.38C222.611 156.375 222.614 156.37 222.617 156.365C222.621 156.36 222.624 156.355 222.627 156.35C222.631 156.345 222.634 156.34 222.637 156.335C222.641 156.33 222.644 156.325 222.647 156.32C222.651 156.315 222.654 156.31 222.657 156.305C222.661 156.3 222.664 156.295 222.667 156.29C222.671 156.285 222.674 156.28 222.677 156.275C222.681 156.27 222.684 156.265 222.687 156.26C222.691 156.255 222.694 156.25 222.697 156.245C222.701 156.24 222.704 156.235 222.707 156.23C222.71 156.225 222.714 156.22 222.717 156.215C222.72 156.21 222.724 156.205 222.727 156.2C222.73 156.195 222.734 156.19 222.737 156.185C222.74 156.181 222.743 156.176 222.747 156.171C222.75 156.166 222.753 156.161 222.757 156.156C222.76 156.151 222.763 156.146 222.766 156.141C222.77 156.136 222.773 156.131 222.776 156.126C222.78 156.121 222.783 156.116 222.786 156.112C222.789 156.107 222.793 156.102 222.796 156.097C222.799 156.092 222.803 156.087 222.806 156.082C222.809 156.077 222.812 156.072 222.816 156.067C222.819 156.063 222.822 156.058 222.825 156.053C222.829 156.048 222.832 156.043 222.835 156.038C222.838 156.033 222.842 156.028 222.845 156.023C222.848 156.019 222.851 156.014 222.855 156.009C222.858 156.004 222.861 155.999 222.864 155.994C222.868 155.989 222.871 155.985 222.874 155.98C222.877 155.975 222.881 155.97 222.884 155.965C222.887 155.96 222.89 155.955 222.893 155.951C222.897 155.946 222.9 155.941 222.903 155.936C222.906 155.931 222.91 155.926 222.913 155.922C222.916 155.917 222.919 155.912 222.922 155.907C222.926 155.902 222.929 155.897 222.932 155.893C222.935 155.888 222.938 155.883 222.942 155.878C222.945 155.873 222.948 155.869 222.951 155.864C222.955 155.859 222.958 155.854 222.961 155.849C222.964 155.845 222.967 155.84 222.97 155.835C222.974 155.83 222.977 155.825 222.98 155.821C222.983 155.816 222.986 155.811 222.99 155.806C222.993 155.802 222.996 155.797 222.999 155.792C223.002 155.787 223.006 155.783 223.009 155.778C223.012 155.773 223.015 155.768 223.018 155.763C223.021 155.759 223.025 155.754 223.028 155.749C223.031 155.744 223.034 155.74 223.037 155.735C223.04 155.73 223.044 155.726 223.047 155.721C223.05 155.716 223.053 155.711 223.056 155.707C223.059 155.702 223.062 155.697 223.066 155.692C223.069 155.688 223.072 155.683 223.075 155.678C223.078 155.674 223.081 155.669 223.084 155.664C223.088 155.659 223.091 155.655 223.094 155.65C223.097 155.645 223.1 155.641 223.103 155.636C223.106 155.631 223.11 155.627 223.113 155.622C223.116 155.617 223.119 155.612 223.122 155.608C223.125 155.603 223.128 155.598 223.131 155.594C223.134 155.589 223.138 155.584 223.141 155.58C223.144 155.575 223.147 155.57 223.15 155.566C223.153 155.561 223.156 155.556 223.159 155.552C223.162 155.547 223.166 155.542 223.169 155.538C223.172 155.533 223.175 155.528 223.178 155.524C223.181 155.519 223.184 155.515 223.187 155.51C223.19 155.505 223.193 155.501 223.197 155.496C223.2 155.491 223.203 155.487 223.206 155.482C223.209 155.478 223.212 155.473 223.215 155.468C223.218 155.464 223.221 155.459 223.224 155.454C223.227 155.45 223.23 155.445 223.233 155.441C223.237 155.436 223.24 155.431 223.243 155.427C223.246 155.422 223.249 155.418 223.252 155.413C223.255 155.408 223.258 155.404 223.261 155.399C223.264 155.395 223.267 155.39 223.27 155.386C223.273 155.381 223.276 155.376 223.279 155.372C223.282 155.367 223.285 155.363 223.288 155.358C223.291 155.354 223.295 155.349 223.298 155.344C223.301 155.34 223.304 155.335 223.307 155.331C223.31 155.326 223.313 155.322 223.316 155.317C223.319 155.313 223.322 155.308 223.325 155.304C223.328 155.299 223.331 155.294 223.334 155.29C223.337 155.285 223.34 155.281 223.343 155.276C223.346 155.272 223.349 155.267 223.352 155.263C223.355 155.258 223.358 155.254 223.361 155.249C223.364 155.245 223.367 155.24 223.37 155.236C223.373 155.231 223.376 155.227 223.379 155.222C223.382 155.218 223.385 155.213 223.388 155.209C223.391 155.204 223.394 155.2 223.397 155.195C223.4 155.191 223.403 155.186 223.406 155.182C223.409 155.177 223.412 155.173 223.415 155.168C223.418 155.164 223.421 155.159 223.424 155.155C223.427 155.151 223.43 155.146 223.433 155.142C223.436 155.137 223.439 155.133 223.442 155.128C223.445 155.124 223.448 155.119 223.451 155.115C223.454 155.11 223.457 155.106 223.459 155.102C223.462 155.097 223.465 155.093 223.468 155.088C223.471 155.084 223.474 155.079 223.477 155.075C223.48 155.071 223.483 155.066 223.486 155.062C223.489 155.057 223.492 155.053 223.495 155.048C223.498 155.044 223.501 155.04 223.504 155.035C223.507 155.031 223.51 155.026 223.513 155.022C223.515 155.018 223.518 155.013 223.521 155.009C223.524 155.004 223.527 155 223.53 154.996C223.533 154.991 223.536 154.987 223.539 154.983C223.542 154.978 223.545 154.974 223.548 154.969C223.551 154.965 223.553 154.961 223.556 154.956C223.559 154.952 223.562 154.948 223.565 154.943C223.568 154.939 223.571 154.934 223.574 154.93C223.577 154.926 223.58 154.921 223.582 154.917C223.585 154.913 223.588 154.908 223.591 154.904C223.594 154.9 223.597 154.895 223.6 154.891C223.603 154.887 223.606 154.882 223.608 154.878C223.611 154.874 223.614 154.869 223.617 154.865C223.62 154.861 223.623 154.856 223.626 154.852C223.629 154.848 223.632 154.844 223.634 154.839C223.637 154.835 223.64 154.831 223.643 154.826C223.646 154.822 223.649 154.818 223.652 154.813C223.654 154.809 223.657 154.805 223.66 154.801C223.663 154.796 223.666 154.792 223.669 154.788C223.672 154.783 223.674 154.779 223.677 154.775C223.68 154.771 223.683 154.766 223.686 154.762C223.689 154.758 223.692 154.754 223.694 154.749C223.697 154.745 223.7 154.741 223.703 154.736C223.706 154.732 223.709 154.728 223.711 154.724C223.714 154.719 223.717 154.715 223.72 154.711C223.723 154.707 223.726 154.703 223.728 154.698C223.731 154.694 223.734 154.69 223.737 154.686C223.74 154.681 223.742 154.677 223.745 154.673C223.748 154.669 223.751 154.664 223.754 154.66C223.756 154.656 223.759 154.652 223.762 154.648C223.765 154.643 223.768 154.639 223.771 154.635C223.773 154.631 223.776 154.627 223.779 154.622C223.782 154.618 223.784 154.614 223.787 154.61C223.79 154.606 223.793 154.601 223.796 154.597C223.798 154.593 223.801 154.589 223.804 154.585C223.807 154.581 223.81 154.576 223.812 154.572C223.815 154.568 223.818 154.564 223.821 154.56C223.823 154.556 223.826 154.551 223.829 154.547C223.832 154.543 223.835 154.539 223.837 154.535C223.84 154.531 223.843 154.527 223.846 154.522C223.848 154.518 223.851 154.514 223.854 154.51C223.857 154.506 223.859 154.502 223.862 154.498C223.865 154.493 223.868 154.489 223.87 154.485C223.873 154.481 223.876 154.477 223.879 154.473C223.881 154.469 223.884 154.465 223.887 154.461C223.89 154.456 223.892 154.452 223.895 154.448C223.898 154.444 223.901 154.44 223.903 154.436C223.906 154.432 223.909 154.428 223.911 154.424C223.914 154.42 223.917 154.415 223.92 154.411C223.922 154.407 223.925 154.403 223.928 154.399C223.93 154.395 223.933 154.391 223.936 154.387C223.939 154.383 223.941 154.379 223.944 154.375C223.947 154.371 223.949 154.367 223.952 154.363C223.955 154.358 223.958 154.354 223.96 154.35C223.963 154.346 223.966 154.342 223.968 154.338C223.971 154.334 223.974 154.33 223.976 154.326C223.979 154.322 223.982 154.318 223.985 154.314C223.987 154.31 223.99 154.306 223.993 154.302C223.995 154.298 223.998 154.294 224.001 154.29C224.003 154.286 224.006 154.282 224.009 154.278C224.011 154.274 224.014 154.27 224.017 154.266C224.019 154.262 224.022 154.258 224.025 154.254C224.027 154.25 224.03 154.246 224.033 154.242C224.035 154.238 224.038 154.234 224.041 154.23C224.043 154.226 224.046 154.222 224.049 154.218C224.051 154.214 224.054 154.21 224.057 154.206C224.059 154.202 224.062 154.198 224.064 154.194C224.067 154.19 224.07 154.186 224.072 154.182C224.075 154.178 224.078 154.174 224.08 154.17C224.083 154.166 224.086 154.162 224.088 154.159C224.091 154.155 224.093 154.151 224.096 154.147C224.099 154.143 224.101 154.139 224.104 154.135C224.107 154.131 224.109 154.127 224.112 154.123C224.114 154.119 224.117 154.115 224.12 154.111C224.122 154.107 224.125 154.104 224.127 154.1C224.13 154.096 224.133 154.092 224.135 154.088C224.138 154.084 224.14 154.08 224.143 154.076C224.146 154.072 224.148 154.068 224.151 154.064C224.153 154.061 224.156 154.057 224.159 154.053C224.161 154.049 224.164 154.045 224.166 154.041C224.169 154.037 224.172 154.033 224.174 154.03C224.177 154.026 224.179 154.022 224.182 154.018C224.184 154.014 224.187 154.01 224.19 154.006C224.192 154.003 224.195 153.999 224.197 153.995C224.2 153.991 224.202 153.987 224.205 153.983C224.208 153.979 224.21 153.976 224.213 153.972C224.215 153.968 224.218 153.964 224.22 153.96C224.223 153.956 224.225 153.953 224.228 153.949C224.231 153.945 224.233 153.941 224.236 153.937C224.238 153.933 224.241 153.93 224.243 153.926C224.246 153.922 224.248 153.918 224.251 153.914C224.253 153.911 224.256 153.907 224.259 153.903C224.261 153.899 224.264 153.895 224.266 153.892C224.269 153.888 224.271 153.884 224.274 153.88C224.276 153.876 224.279 153.873 224.281 153.869C224.284 153.865 224.286 153.861 224.289 153.858C224.291 153.854 224.294 153.85 224.296 153.846C224.299 153.842 224.301 153.839 224.304 153.835C224.306 153.831 224.309 153.827 224.311 153.824C224.314 153.82 224.316 153.816 224.319 153.812C224.321 153.809 224.324 153.805 224.326 153.801C224.329 153.797 224.331 153.794 224.334 153.79C224.336 153.786 224.339 153.783 224.341 153.779C224.344 153.775 224.346 153.771 224.349 153.768C224.351 153.764 224.354 153.76 224.356 153.756C224.359 153.753 224.361 153.749 224.364 153.745C224.366 153.742 224.369 153.738 224.371 153.734C224.373 153.731 224.376 153.727 224.378 153.723C224.381 153.719 224.383 153.716 224.386 153.712C224.388 153.708 224.391 153.705 224.393 153.701C224.396 153.697 224.398 153.694 224.401 153.69C224.403 153.686 224.405 153.683 224.408 153.679C224.41 153.675 224.413 153.672 224.415 153.668C224.418 153.664 224.42 153.661 224.422 153.657C224.425 153.653 224.427 153.65 224.43 153.646C224.432 153.642 224.435 153.639 224.437 153.635C224.44 153.632 224.442 153.628 224.444 153.624C224.447 153.621 224.449 153.617 224.452 153.613C224.454 153.61 224.456 153.606 224.459 153.602C224.461 153.599 224.464 153.595 224.466 153.592C224.469 153.588 224.471 153.584 224.473 153.581C224.476 153.577 224.478 153.574 224.481 153.57C224.483 153.566 224.485 153.563 224.488 153.559C224.49 153.556 224.493 153.552 224.495 153.548C224.497 153.545 224.5 153.541 224.502 153.538C224.504 153.534 224.507 153.53 224.509 153.527C224.512 153.523 224.514 153.52 224.516 153.516C224.519 153.513 224.521 153.509 224.524 153.506C224.526 153.502 224.528 153.498 224.531 153.495C224.533 153.491 224.535 153.488 224.538 153.484C224.54 153.481 224.542 153.477 224.545 153.474C224.547 153.47 224.55 153.466 224.552 153.463C224.554 153.459 224.557 153.456 224.559 153.452C224.561 153.449 224.564 153.445 224.566 153.442C224.568 153.438 224.571 153.435 224.573 153.431C224.575 153.428 224.578 153.424 224.58 153.421C224.582 153.417 224.585 153.414 224.587 153.41C224.589 153.407 224.592 153.403 224.594 153.4C224.596 153.396 224.599 153.393 224.601 153.389C224.603 153.386 224.606 153.382 224.608 153.379C224.61 153.375 224.613 153.372 224.615 153.368C224.617 153.365 224.62 153.361 224.622 153.358C224.624 153.354 224.627 153.351 224.629 153.347C224.631 153.344 224.633 153.341 224.636 153.337C224.638 153.334 224.64 153.33 224.643 153.327C224.645 153.323 224.647 153.32 224.65 153.316C224.652 153.313 224.654 153.309 224.656 153.306C224.659 153.303 224.661 153.299 224.663 153.296C224.666 153.292 224.668 153.289 224.67 153.285C224.672 153.282 224.675 153.279 224.677 153.275C224.679 153.272 224.682 153.268 224.684 153.265C224.686 153.262 224.688 153.258 224.691 153.255C224.693 153.251 224.695 153.248 224.697 153.245C224.7 153.241 224.702 153.238 224.704 153.234C224.707 153.231 224.709 153.228 224.711 153.224C224.713 153.221 224.716 153.217 224.718 153.214C224.72 153.211 224.722 153.207 224.725 153.204C224.727 153.201 224.729 153.197 224.731 153.194C224.734 153.19 224.736 153.187 224.738 153.184C224.74 153.18 224.742 153.177 224.745 153.174C224.747 153.17 224.749 153.167 224.751 153.164C224.754 153.16 224.756 153.157 224.758 153.154C224.76 153.15 224.763 153.147 224.765 153.144C224.767 153.14 224.769 153.137 224.771 153.134C224.774 153.13 224.776 153.127 224.778 153.124C224.78 153.12 224.782 153.117 224.785 153.114C224.787 153.11 224.789 153.107 224.791 153.104C224.794 153.101 224.796 153.097 224.798 153.094C224.8 153.091 224.802 153.087 224.804 153.084C224.807 153.081 224.809 153.077 224.811 153.074C224.813 153.071 224.815 153.068 224.818 153.064C224.82 153.061 224.822 153.058 224.824 153.054C224.826 153.051 224.829 153.048 224.831 153.045C224.833 153.041 224.835 153.038 224.837 153.035C224.839 153.032 224.842 153.028 224.844 153.025C224.846 153.022 224.848 153.019 224.85 153.015C224.852 153.012 224.855 153.009 224.857 153.006C224.859 153.002 224.861 152.999 224.863 152.996C224.865 152.993 224.868 152.99 224.87 152.986C224.872 152.983 224.874 152.98 224.876 152.977C224.878 152.973 224.88 152.97 224.883 152.967C224.885 152.964 224.887 152.961 224.889 152.957C224.891 152.954 224.893 152.951 224.895 152.948C224.898 152.945 224.9 152.941 224.902 152.938C224.904 152.935 224.906 152.932 224.908 152.929C224.91 152.925 224.912 152.922 224.915 152.919C224.917 152.916 224.919 152.913 224.921 152.909C224.923 152.906 224.925 152.903 224.927 152.9C224.929 152.897 224.931 152.894 224.934 152.89C224.936 152.887 224.938 152.884 224.94 152.881C224.942 152.878 224.944 152.875 224.946 152.872C224.948 152.868 224.95 152.865 224.952 152.862C224.955 152.859 224.957 152.856 224.959 152.853C224.961 152.85 224.963 152.846 224.965 152.843C224.967 152.84 224.969 152.837 224.971 152.834C224.973 152.831 224.975 152.828 224.977 152.825C224.98 152.822 224.982 152.818 224.984 152.815C224.986 152.812 224.988 152.809 224.99 152.806C224.992 152.803 224.994 152.8 224.996 152.797C224.998 152.794 225 152.791 225.002 152.787C225.004 152.784 225.006 152.781 225.008 152.778C225.01 152.775 225.013 152.772 225.015 152.769C225.017 152.766 225.019 152.763 225.021 152.76C225.023 152.757 225.025 152.754 225.027 152.751C225.029 152.747 225.031 152.744 225.033 152.741C225.035 152.738 225.037 152.735 225.039 152.732C225.041 152.729 225.043 152.726 225.045 152.723C225.047 152.72 225.049 152.717 225.051 152.714C225.053 152.711 225.055 152.708 225.057 152.705C225.059 152.702 225.061 152.699 225.063 152.696C225.065 152.693 225.067 152.69 225.069 152.687C225.071 152.684 225.073 152.681 225.075 152.678C225.077 152.675 225.079 152.672 225.081 152.669C225.083 152.666 225.085 152.663 225.087 152.66C225.089 152.657 225.091 152.654 225.093 152.651C225.095 152.648 225.097 152.645 225.099 152.642C225.101 152.639 225.103 152.636 225.105 152.633C225.107 152.63 225.109 152.627 225.111 152.624C225.113 152.621 225.115 152.618 225.117 152.615C225.119 152.612 225.121 152.609 225.123 152.606C225.125 152.603 225.127 152.6 225.129 152.597C225.131 152.594 225.133 152.591 225.135 152.588C225.137 152.586 225.139 152.583 225.141 152.58C225.143 152.577 225.145 152.574 225.147 152.571C225.149 152.568 225.151 152.565 225.152 152.562C225.154 152.559 225.156 152.556 225.158 152.553C225.16 152.55 225.162 152.547 225.164 152.545C225.166 152.542 225.168 152.539 225.17 152.536C225.172 152.533 225.174 152.53 225.176 152.527C225.178 152.524 225.18 152.521 225.182 152.518C225.183 152.516 225.185 152.513 225.187 152.51C225.189 152.507 225.191 152.504 225.193 152.501C225.195 152.498 225.197 152.495 225.199 152.493C225.201 152.49 225.203 152.487 225.205 152.484C225.206 152.481 225.208 152.478 225.21 152.475C225.212 152.473 225.214 152.47 225.216 152.467C225.218 152.464 225.22 152.461 225.222 152.458C225.224 152.455 225.225 152.453 225.227 152.45C225.229 152.447 225.231 152.444 225.233 152.441C225.235 152.438 225.237 152.436 225.239 152.433C225.241 152.43 225.242 152.427 225.244 152.424C225.246 152.422 225.248 152.419 225.25 152.416C225.252 152.413 225.254 152.41 225.256 152.407C225.257 152.405 225.259 152.402 225.261 152.399C225.263 152.396 225.265 152.393 225.267 152.391C225.269 152.388 225.27 152.385 225.272 152.382C225.274 152.38 225.276 152.377 225.278 152.374C225.28 152.371 225.282 152.368 225.283 152.366C225.285 152.363 225.287 152.36 225.289 152.357C225.291 152.355 225.293 152.352 225.294 152.349C225.296 152.346 225.298 152.344 225.3 152.341C225.302 152.338 225.304 152.335 225.305 152.333C225.307 152.33 225.309 152.327 225.311 152.324C225.313 152.322 225.315 152.319 225.316 152.316C225.318 152.313 225.32 152.311 225.322 152.308C225.324 152.305 225.326 152.303 225.327 152.3C225.329 152.297 225.331 152.294 225.333 152.292C225.335 152.289 225.336 152.286 225.338 152.284C225.34 152.281 225.342 152.278 225.344 152.275C225.345 152.273 225.347 152.27 225.349 152.267C225.351 152.265 225.353 152.262 225.354 152.259C225.356 152.257 225.358 152.254 225.36 152.251C225.361 152.249 225.363 152.246 225.365 152.243C225.367 152.241 225.369 152.238 225.37 152.235C225.372 152.233 225.374 152.23 225.376 152.227C225.377 152.225 225.379 152.222 225.381 152.219C225.383 152.217 225.385 152.214 225.386 152.211C225.388 152.209 225.39 152.206 225.392 152.203C225.393 152.201 225.395 152.198 225.397 152.195C225.399 152.193 225.4 152.19 225.402 152.188C225.404 152.185 225.406 152.182 225.407 152.18C225.409 152.177 225.411 152.174 225.413 152.172C225.414 152.169 225.416 152.167 225.418 152.164C225.42 152.161 225.421 152.159 225.423 152.156C225.425 152.154 225.427 152.151 225.428 152.148C225.43 152.146 225.432 152.143 225.433 152.141C225.435 152.138 225.437 152.135 225.439 152.133C225.44 152.13 225.442 152.128 225.444 152.125C225.445 152.123 225.447 152.12 225.449 152.117C225.451 152.115 225.452 152.112 225.454 152.11C225.456 152.107 225.457 152.105 225.459 152.102C225.461 152.1 225.463 152.097 225.464 152.094C225.466 152.092 225.468 152.089 225.469 152.087C225.471 152.084 225.473 152.082 225.474 152.079C225.476 152.077 225.478 152.074 225.479 152.072C225.481 152.069 225.483 152.067 225.484 152.064C225.486 152.062 225.488 152.059 225.49 152.057C225.491 152.054 225.493 152.051 225.495 152.049C225.496 152.046 225.498 152.044 225.5 152.041C225.501 152.039 225.503 152.036 225.505 152.034C225.506 152.031 225.508 152.029 225.51 152.027C225.511 152.024 225.513 152.022 225.514 152.019C225.516 152.017 225.518 152.014 225.519 152.012C225.521 152.009 225.523 152.007 225.524 152.004C225.526 152.002 225.528 151.999 225.529 151.997C225.531 151.994 225.533 151.992 225.534 151.989C225.536 151.987 225.537 151.985 225.539 151.982C225.541 151.98 225.542 151.977 225.544 151.975C225.546 151.972 225.547 151.97 225.549 151.967C225.551 151.965 225.552 151.963 225.554 151.96C225.555 151.958 225.557 151.955 225.559 151.953C225.56 151.95 225.562 151.948 225.563 151.946C225.565 151.943 225.567 151.941 225.568 151.938C225.57 151.936 225.571 151.934 225.573 151.931C225.575 151.929 225.576 151.926 225.578 151.924C225.579 151.922 225.581 151.919 225.583 151.917C225.584 151.914 225.586 151.912 225.587 151.91C225.589 151.907 225.591 151.905 225.592 151.903C225.594 151.9 225.595 151.898 225.597 151.895C225.598 151.893 225.6 151.891 225.602 151.888C225.603 151.886 225.605 151.884 225.606 151.881C225.608 151.879 225.61 151.877 225.611 151.874C225.613 151.872 225.614 151.869 225.616 151.867C225.617 151.865 225.619 151.862 225.62 151.86C225.622 151.858 225.624 151.855 225.625 151.853C225.627 151.851 225.628 151.848 225.63 151.846C225.631 151.844 225.633 151.841 225.634 151.839C225.636 151.837 225.637 151.835 225.639 151.832C225.641 151.83 225.642 151.828 225.644 151.825C225.645 151.823 225.647 151.821 225.648 151.818C225.65 151.816 225.651 151.814 225.653 151.812C225.654 151.809 225.656 151.807 225.657 151.805C225.659 151.802 225.66 151.8 225.662 151.798C225.663 151.796 225.665 151.793 225.666 151.791C225.668 151.789 225.67 151.786 225.671 151.784C225.673 151.782 225.674 151.78 225.676 151.777C225.677 151.775 225.679 151.773 225.68 151.771L224.016 150.661ZM220.002 156.683C218.099 159.348 215.52 162.691 212.263 166.715L213.817 167.973C217.088 163.933 219.693 160.556 221.63 157.845L220.002 156.683ZM212.249 166.732C207.644 172.68 202.078 179.781 195.552 188.036L197.12 189.276C203.65 181.019 209.22 173.912 213.831 167.956L212.249 166.732ZM195.552 188.036C189.023 196.292 182.207 204.933 175.102 213.957L176.674 215.195C183.777 206.171 190.593 197.532 197.12 189.276L195.552 188.036ZM175.102 213.957C167.998 222.982 160.989 231.911 154.077 240.744L155.652 241.976C162.563 233.145 169.57 224.218 176.674 215.195L175.102 213.957ZM154.083 240.735C147.172 249.375 140.932 257.15 135.365 264.061L136.923 265.315C142.492 258.402 148.732 250.625 155.645 241.985L154.083 240.735ZM135.144 264.688V265.552H137.144V264.688H135.144ZM136.144 266.552H190.288V264.552H136.144V266.552ZM190.288 266.552C202.212 266.552 211.496 265.976 218.11 264.809L217.762 262.839C211.32 263.976 202.172 264.552 190.288 264.552V266.552ZM218.132 264.805C221.511 264.129 224.287 263.448 226.447 262.761C228.581 262.082 230.211 261.367 231.222 260.581L229.994 259.003C229.277 259.561 227.931 260.19 225.841 260.855C223.777 261.512 221.081 262.175 217.74 262.843L218.132 264.805ZM229.646 259.517L223.886 279.677L225.81 280.227L231.57 260.067L229.646 259.517ZM223.848 279.952V286H225.848V279.952H223.848ZM224.848 285H88.048V287H224.848V285ZM253.398 281.968L252.504 281.521L252.491 281.547L252.479 281.574L253.398 281.968ZM253.398 91.6L252.479 91.9939L252.497 92.0349L252.518 92.0741L253.398 91.6ZM249.654 87.28V86.28L249.513 88.2699L249.654 87.28ZM284.79 87.28H285.79V86.28H284.79V87.28ZM284.79 165.904L285.779 166.056L285.79 165.98V165.904H284.79ZM284.214 169.648L283.226 169.496L283.149 169.997L283.507 170.355L284.214 169.648ZM284.79 170.224L284.083 170.931L284.88 171.728L285.577 170.842L284.79 170.224ZM303.51 155.248L303.023 154.375L303.023 154.375L303.51 155.248ZM377.238 163.6L376.504 164.279L376.511 164.286L377.238 163.6ZM393.366 281.968L392.447 282.362L392.459 282.389L392.472 282.415L393.366 281.968ZM360.246 281.968L359.352 281.521L359.339 281.547L359.327 281.574L360.246 281.968ZM357.942 185.776L358.853 185.362L358.853 185.362L357.942 185.776ZM345.846 172.528L345.372 173.408L345.392 173.419L345.412 173.429L345.846 172.528ZM286.518 281.968L285.599 282.362L285.611 282.389L285.624 282.415L286.518 281.968ZM249.654 287C250.694 287 251.589 286.471 252.331 285.672C253.066 284.881 253.72 283.756 254.317 282.362L252.479 281.574C251.925 282.868 251.379 283.759 250.865 284.312C250.359 284.857 249.958 285 249.654 285V287ZM254.293 282.415C255.747 279.506 256.414 274.89 256.414 268.72H254.414C254.414 274.838 253.737 279.054 252.504 281.521L254.293 282.415ZM256.414 268.72V104.56L254.414 104.56L254.414 268.72H256.414ZM256.414 104.56C256.414 98.4011 255.75 93.859 254.279 91.1259L252.518 92.0741C253.734 94.333 254.414 98.4309 254.414 104.56L256.414 104.56ZM254.317 91.2061C253.72 89.8122 253.072 88.6771 252.354 87.8491C251.635 87.02 250.787 86.4316 249.796 86.29L249.513 88.2699C249.866 88.3203 250.313 88.548 250.843 89.1589C251.373 89.7709 251.924 90.6998 252.479 91.9939L254.317 91.2061ZM249.654 88.28L284.79 88.28V86.28L249.654 86.28V88.28ZM283.79 87.28V165.904H285.79V87.28H283.79ZM283.802 165.752L283.226 169.496L285.203 169.8L285.779 166.056L283.802 165.752ZM283.507 170.355L284.083 170.931L285.497 169.517L284.921 168.941L283.507 170.355ZM285.577 170.842C289.694 165.602 295.816 160.688 303.998 156.121L303.023 154.375C294.693 159.024 288.335 164.094 284.004 169.606L285.577 170.842ZM303.998 156.121C312.053 151.625 322.81 149.336 336.342 149.336V147.336C322.61 147.336 311.479 149.655 303.023 154.375L303.998 156.121ZM336.342 149.336C354.005 149.336 367.336 154.363 376.504 164.279L377.973 162.921C368.324 152.485 354.392 147.336 336.342 147.336V149.336ZM376.511 164.286C385.861 174.197 390.638 189.831 390.638 211.408H392.638C392.638 189.593 387.816 173.355 377.966 162.914L376.511 164.286ZM390.638 211.408L390.638 268.72H392.638L392.638 211.408H390.638ZM390.638 268.72C390.638 274.883 391.21 279.475 392.447 282.362L394.285 281.574C393.219 279.085 392.638 274.845 392.638 268.72H390.638ZM392.472 282.415C393.167 283.806 393.896 284.92 394.675 285.699C395.456 286.48 396.367 287 397.398 287V285C397.085 285 396.652 284.848 396.089 284.285C395.524 283.72 394.909 282.818 394.261 281.521L392.472 282.415ZM397.398 285H356.502V287H397.398V285ZM356.502 287C357.542 287 358.437 286.471 359.179 285.672C359.914 284.881 360.568 283.756 361.165 282.362L359.327 281.574C358.773 282.868 358.227 283.759 357.713 284.312C357.207 284.857 356.806 285 356.502 285V287ZM361.141 282.415C362.595 279.506 363.262 274.89 363.262 268.72H361.262C361.262 274.838 360.585 279.054 359.352 281.521L361.141 282.415ZM363.262 268.72L363.262 212.272H361.262L361.262 268.72H363.262ZM363.262 212.272C363.262 200.88 361.817 191.885 358.853 185.362L357.032 186.19C359.827 192.339 361.262 201.008 361.262 212.272H363.262ZM358.853 185.362C355.897 178.859 351.717 174.245 346.28 171.627L345.412 173.429C350.344 175.803 354.228 180.021 357.032 186.19L358.853 185.362ZM346.32 171.648C341.158 168.868 335.133 167.496 328.278 167.496V169.496C334.863 169.496 340.551 170.812 345.372 173.408L346.32 171.648ZM328.278 167.496C321.025 167.496 313.972 169.065 307.126 172.195L307.958 174.013C314.553 170.999 321.324 169.496 328.278 169.496V167.496ZM307.126 172.195C300.216 175.354 294.599 180.388 290.28 187.26L291.973 188.324C296.101 181.756 301.429 176.998 307.958 174.013L307.126 172.195ZM290.28 187.26C285.921 194.194 283.79 203.424 283.79 214.864H285.79C285.79 203.648 287.883 194.83 291.973 188.324L290.28 187.26ZM283.79 214.864V268.72H285.79V214.864H283.79ZM283.79 268.72C283.79 274.883 284.362 279.475 285.599 282.362L287.437 281.574C286.371 279.085 285.79 274.845 285.79 268.72H283.79ZM285.624 282.415C286.319 283.806 287.048 284.92 287.827 285.699C288.608 286.48 289.519 287 290.55 287V285C290.237 285 289.804 284.848 289.241 284.285C288.676 283.72 288.061 282.818 287.413 281.521L285.624 282.415ZM290.55 285H249.654V287H290.55V285Z" fill="black"/>
</g>
<defs>
<filter id="filter0_d" x="82.5314" y="86.28" width="318.867" height="208.72" filterUnits="userSpaceOnUse" color-interpolation-filters="sRGB">
<feFlood flood-opacity="0" result="BackgroundImageFix"/>
<feColorMatrix in="SourceAlpha" type="matrix" values="0 0 0 0 0 0 0 0 0 0 0 0 0 0 0 0 0 0 127 0" result="hardAlpha"/>
<feOffset dy="4"/>
<feGaussianBlur stdDeviation="2"/>
<feComposite in2="hardAlpha" operator="out"/>
<feColorMatrix type="matrix" values="0 0 0 0 0 0 0 0 0 0 0 0 0 0 0 0 0 0 0.25 0"/>
<feBlend mode="normal" in2="BackgroundImageFix" result="effect1_dropShadow"/>
<feBlend mode="normal" in="SourceGraphic" in2="effect1_dropShadow" result="shape"/>
</filter>
</defs>
</svg>
